<svg width="20" height="19" viewBox="0 0 20 19" fill="none" xmlns="http://www.w3.org/2000/svg">
<path d="M5.8 0H14.2C17.4 0 20 2.47 20 5.51V13.49C20 14.9513 19.3889 16.3528 18.3012 17.3862C17.2135 18.4195 15.7383 19 14.2 19H5.8C2.6 19 0 16.53 0 13.49V5.51C0 4.04866 0.61107 2.64717 1.69878 1.61384C2.78649 0.580516 4.26174 0 5.8 0ZM5.6 1.9C4.64522 1.9 3.72955 2.26032 3.05442 2.90169C2.37928 3.54307 2 4.41296 2 5.32V13.68C2 15.5705 3.61 17.1 5.6 17.1H14.4C15.3548 17.1 16.2705 16.7397 16.9456 16.0983C17.6207 15.4569 18 14.587 18 13.68V5.32C18 3.4295 16.39 1.9 14.4 1.9H5.6ZM15.25 3.325C15.5815 3.325 15.8995 3.45011 16.1339 3.67281C16.3683 3.89551 16.5 4.19756 16.5 4.5125C16.5 4.82744 16.3683 5.12949 16.1339 5.35219C15.8995 5.57489 15.5815 5.7 15.25 5.7C14.9185 5.7 14.6005 5.57489 14.3661 5.35219C14.1317 5.12949 14 4.82744 14 4.5125C14 4.19756 14.1317 3.89551 14.3661 3.67281C14.6005 3.45011 14.9185 3.325 15.25 3.325ZM10 4.75C11.3261 4.75 12.5979 5.25044 13.5355 6.14124C14.4732 7.03204 15 8.24022 15 9.5C15 10.7598 14.4732 11.968 13.5355 12.8588C12.5979 13.7496 11.3261 14.25 10 14.25C8.67392 14.25 7.40215 13.7496 6.46447 12.8588C5.52678 11.968 5 10.7598 5 9.5C5 8.24022 5.52678 7.03204 6.46447 6.14124C7.40215 5.25044 8.67392 4.75 10 4.75ZM10 6.65C9.20435 6.65 8.44129 6.95027 7.87868 7.48475C7.31607 8.01922 7 8.74413 7 9.5C7 10.2559 7.31607 10.9808 7.87868 11.5153C8.44129 12.0497 9.20435 12.35 10 12.35C10.7956 12.35 11.5587 12.0497 12.1213 11.5153C12.6839 10.9808 13 10.2559 13 9.5C13 8.74413 12.6839 8.01922 12.1213 7.48475C11.5587 6.95027 10.7956 6.65 10 6.65Z" fill="black"/>
</svg>
