<svg width="277" height="78" viewBox="0 0 277 78" fill="none" xmlns="http://www.w3.org/2000/svg">
<path d="M4.4 35.6C4.4 36.16 4.41333 36.6667 4.44 37.12L4.52 38.64C4.52 38.96 4.41333 39.2667 4.2 39.56C3.98667 39.88 3.64 40.04 3.16 40.04C2.70667 40.04 2.36 39.8667 2.12 39.52C1.88 39.1733 1.76 38.9067 1.76 38.72C1.76 38.56 1.76 38.32 1.76 38C1.78667 37.68 1.81333 37.32 1.84 36.92C1.86667 36.52 1.88 36.12 1.88 35.72C1.90667 35.32 1.92 34.9733 1.92 34.68C1.92 34.2533 1.90667 33.8933 1.88 33.6C1.88 33.3067 1.88 33.0267 1.88 32.76C1.88 32.4667 1.86667 32.1733 1.84 31.88C1.84 31.5867 1.84 31.2267 1.84 30.8C1.84 30.4267 1.92 30.04 2.08 29.64C2.24 29.24 2.61333 29.04 3.2 29.04C3.54667 29.04 3.81333 29.1333 4 29.32C4.18667 29.48 4.33333 29.7067 4.44 30C4.54667 30.2667 4.61333 30.56 4.64 30.88C4.66667 31.2 4.68 31.5067 4.68 31.8C4.68 32.4933 4.84 33.16 5.16 33.8C5.50667 34.44 6 35.0267 6.64 35.56C7.28 36.0667 8.06667 36.48 9 36.8C9.93333 37.0933 11 37.24 12.2 37.24C13.16 37.24 14.0667 37.1467 14.92 36.96C15.8 36.7467 16.56 36.4667 17.2 36.12C17.8667 35.7733 18.4 35.36 18.8 34.88C19.2 34.3733 19.4 33.8133 19.4 33.2C19.4 32.4 19.0667 31.68 18.4 31.04C17.76 30.4 16.9467 29.8133 15.96 29.28C14.9733 28.7467 13.92 28.2533 12.8 27.8C11.68 27.3467 10.6533 26.8933 9.72 26.44C8.86667 26.04 7.98667 25.6 7.08 25.12C6.2 24.6133 5.38667 23.9867 4.64 23.24C3.92 22.4667 3.32 21.5067 2.84 20.36C2.38667 19.2133 2.16 17.7733 2.16 16.04C2.16 14.5467 2.46667 13.16 3.08 11.88C3.72 10.6 4.53333 9.49333 5.52 8.56C6.50667 7.6 7.61333 6.85333 8.84 6.32C10.0667 5.78667 11.28 5.52 12.48 5.52C14.4267 5.52 16.08 6.05333 17.44 7.12C18.8 8.16 19.88 9.84 20.68 12.16C20.5733 10.48 20.4933 9.24 20.44 8.44C20.3867 7.61333 20.36 7.18667 20.36 7.16C20.36 6.84 20.44 6.53333 20.6 6.24C20.7867 5.92 21.16 5.76 21.72 5.76C22.04 5.76 22.2933 5.81333 22.48 5.92C22.6667 6.02667 22.8 6.14667 22.88 6.28C22.9867 6.41333 23.0533 6.56 23.08 6.72C23.1067 6.88 23.12 7 23.12 7.08C23.12 8.01333 23.0933 8.98667 23.04 10C22.9867 10.9867 22.96 11.96 22.96 12.92C22.96 13.7733 22.9733 14.5733 23 15.32C23.0267 16.0667 23.04 16.8667 23.04 17.72C23.04 18.0933 22.92 18.4133 22.68 18.68C22.44 18.9467 22.08 19.08 21.6 19.08C21.0667 19.08 20.7067 18.84 20.52 18.36C20.3333 17.8533 20.24 17.3067 20.24 16.72C20.1333 15.44 19.84 14.2667 19.36 13.2C18.88 12.1333 18.2933 11.2133 17.6 10.44C16.9067 9.64 16.1333 9.02667 15.28 8.6C14.4533 8.14667 13.6267 7.92 12.8 7.92C11.7067 7.92 10.68 8.16 9.72 8.64C8.78667 9.12 7.97333 9.76 7.28 10.56C6.58667 11.36 6.02667 12.2667 5.6 13.28C5.2 14.2933 5 15.3333 5 16.4C5 17.6 5.14667 18.6133 5.44 19.44C5.73333 20.24 6.12 20.92 6.6 21.48C7.10667 22.0133 7.66667 22.4533 8.28 22.8C8.92 23.1467 9.56 23.4667 10.2 23.76C10.7867 24.0267 11.4933 24.32 12.32 24.64C13.1467 24.96 14 25.3333 14.88 25.76C15.7867 26.16 16.68 26.6133 17.56 27.12C18.44 27.6 19.2267 28.1467 19.92 28.76C20.6133 29.3467 21.1733 30.0133 21.6 30.76C22.0267 31.5067 22.24 32.32 22.24 33.2C22.24 34.4 21.9067 35.4133 21.24 36.24C20.6 37.0667 19.7867 37.7333 18.8 38.24C17.8133 38.72 16.7333 39.0667 15.56 39.28C14.4133 39.52 13.3333 39.64 12.32 39.64C11.6 39.64 10.84 39.5733 10.04 39.44C9.26667 39.3067 8.52 39.0933 7.8 38.8C7.08 38.48 6.41333 38.0667 5.8 37.56C5.21333 37.0267 4.74667 36.3733 4.4 35.6ZM31.8913 26.08C31.8913 27.52 31.9446 28.9067 32.0513 30.24C32.1579 31.5467 32.4646 32.7067 32.9713 33.72C33.4779 34.7333 34.2646 35.5467 35.3313 36.16C36.3979 36.7733 37.9046 37.08 39.8513 37.08C41.2913 37.08 42.5046 36.8267 43.4913 36.32C44.5046 35.7867 45.3179 35.0933 45.9313 34.24C46.5446 33.3867 46.9846 32.4267 47.2513 31.36C47.5179 30.2933 47.6513 29.2133 47.6513 28.12V11.24C47.6513 11 47.5579 10.8267 47.3713 10.72C47.1846 10.5867 46.9579 10.4933 46.6913 10.44C46.4513 10.3867 46.1979 10.36 45.9313 10.36C45.6646 10.3333 45.4379 10.32 45.2513 10.32C44.9579 10.32 44.6379 10.2533 44.2913 10.12C43.9446 9.98666 43.7713 9.72 43.7713 9.32C43.7713 8.65333 44.2646 8.32 45.2513 8.32H53.0913C53.9446 8.32 54.4913 8.4 54.7313 8.56C54.9979 8.69333 55.1313 8.94666 55.1313 9.32C55.1313 9.77333 54.9579 10.0533 54.6113 10.16C54.2913 10.2667 53.9713 10.32 53.6513 10.32C53.5179 10.32 53.2646 10.3333 52.8913 10.36C52.5446 10.36 52.1846 10.3867 51.8113 10.44C51.4646 10.4933 51.1446 10.6 50.8513 10.76C50.5846 10.8933 50.4513 11.08 50.4513 11.32C50.4513 12.68 50.4379 14.0267 50.4113 15.36C50.3846 16.6667 50.3713 17.9867 50.3713 19.32C50.3713 20.7867 50.3846 22.2533 50.4113 23.72C50.4379 25.1867 50.4513 26.6533 50.4513 28.12C50.4513 30.0933 50.1846 31.8 49.6513 33.24C49.1446 34.68 48.4246 35.8667 47.4913 36.8C46.5579 37.7333 45.4379 38.4267 44.1313 38.88C42.8246 39.3333 41.3846 39.56 39.8113 39.56C38.5846 39.56 37.4246 39.44 36.3313 39.2C35.2646 38.9867 34.2913 38.6533 33.4113 38.2C32.5579 37.7467 31.8246 37.1733 31.2113 36.48C30.5979 35.76 30.1579 34.9333 29.8913 34C29.4913 32.64 29.2513 31.28 29.1713 29.92C29.1179 28.5333 29.0913 27.1067 29.0913 25.64C29.0913 24.7867 29.0913 23.92 29.0913 23.04C29.1179 22.1333 29.1313 21.2267 29.1313 20.32C29.1313 18.4533 29.1179 16.5867 29.0913 14.72C29.0646 12.8533 29.0513 10.9733 29.0513 9.08C29.0513 8.84 28.9579 8.66667 28.7713 8.56C28.5846 8.42667 28.3579 8.33333 28.0913 8.28C27.8513 8.22667 27.5846 8.2 27.2913 8.2C27.0246 8.17333 26.8113 8.16 26.6513 8.16C26.3579 8.16 26.0379 8.12 25.6913 8.04C25.3446 7.93333 25.1713 7.64 25.1713 7.16C25.1713 6.73333 25.3579 6.46667 25.7313 6.36C26.1046 6.22667 26.4113 6.16 26.6513 6.16H34.5312C35.3846 6.16 35.9313 6.24 36.1713 6.4C36.4379 6.53333 36.5713 6.78666 36.5713 7.16C36.5713 7.53333 36.3979 7.8 36.0513 7.96C35.7313 8.09333 35.4113 8.16 35.0912 8.16C34.9579 8.16 34.7179 8.17333 34.3713 8.2C34.0246 8.2 33.6646 8.22667 33.2913 8.28C32.9446 8.33333 32.6246 8.44 32.3313 8.6C32.0379 8.73333 31.8913 8.92 31.8913 9.16V26.08ZM63.9497 10.68V36.96H67.9497C68.243 36.96 68.5097 37.04 68.7497 37.2C69.0164 37.3333 69.1497 37.6 69.1497 38C69.1497 38.6667 68.883 39 68.3497 39H59.3097C58.9364 39 58.563 38.9467 58.1897 38.84C57.843 38.7067 57.6697 38.4267 57.6697 38C57.6697 37.6533 57.803 37.4133 58.0697 37.28C58.3364 37.1467 58.5897 37.08 58.8297 37.08C58.9897 37.08 59.163 37.08 59.3497 37.08C59.563 37.0533 59.763 36.9867 59.9497 36.88C60.163 36.7467 60.3364 36.56 60.4697 36.32C60.6297 36.0533 60.723 35.6933 60.7497 35.24C60.803 33.4267 60.8697 31.52 60.9497 29.52C61.0564 27.4933 61.1097 25.48 61.1097 23.48C61.1097 21.1867 61.083 18.8267 61.0297 16.4C61.003 13.9467 60.9897 11.64 60.9897 9.48C60.9897 9.08 60.763 8.81333 60.3097 8.68C59.883 8.54667 59.403 8.44 58.8697 8.36C58.3364 8.25333 57.843 8.10667 57.3897 7.92C56.963 7.73333 56.7497 7.37333 56.7497 6.84C56.7497 6.38667 57.523 6.16 59.0697 6.16H64.5897C64.9097 6.16 65.163 6.26667 65.3497 6.48C65.5364 6.66666 65.8164 7.09333 66.1897 7.76C66.6164 8.56 67.2164 9.68 67.9897 11.12C68.763 12.56 69.6164 14.16 70.5497 15.92C71.5097 17.6533 72.483 19.4667 73.4697 21.36C74.483 23.2267 75.4164 24.9867 76.2697 26.64C77.1497 28.2933 77.9097 29.76 78.5497 31.04C79.1897 32.2933 79.6297 33.1867 79.8697 33.72V9.76C79.8697 9.52 79.7897 9.34667 79.6297 9.24C79.4697 9.10667 79.2697 9.01333 79.0297 8.96C78.7897 8.90667 78.5364 8.88 78.2697 8.88C78.0297 8.85333 77.8297 8.84 77.6697 8.84C77.3764 8.84 77.0564 8.77333 76.7097 8.64C76.363 8.50666 76.1897 8.21333 76.1897 7.76C76.1897 7.14667 76.683 6.84 77.6697 6.84H85.9097C86.763 6.84 87.3097 6.90667 87.5497 7.04C87.8164 7.17333 87.9497 7.41333 87.9497 7.76C87.9497 8.21333 87.7764 8.50666 87.4297 8.64C87.1097 8.77333 86.7897 8.84 86.4697 8.84C86.3364 8.84 86.0697 8.85333 85.6697 8.88C85.2964 8.88 84.8964 8.90667 84.4697 8.96C84.043 9.01333 83.6564 9.12 83.3097 9.28C82.9897 9.41333 82.8297 9.6 82.8297 9.84C82.803 11.3067 82.7764 12.6 82.7497 13.72C82.7497 14.8133 82.7364 15.8933 82.7097 16.96C82.7097 18 82.6964 19.0933 82.6697 20.24C82.6697 21.3867 82.6697 22.7333 82.6697 24.28C82.6697 25.16 82.6697 26.2 82.6697 27.4C82.6964 28.6 82.7097 29.84 82.7097 31.12C82.7097 32.4 82.7097 33.6667 82.7097 34.92C82.7364 36.1467 82.7497 37.2267 82.7497 38.16C82.7497 38.5333 82.6164 38.84 82.3497 39.08C82.1097 39.32 81.7764 39.44 81.3497 39.44C80.9764 39.44 80.643 39.3867 80.3497 39.28C80.0564 39.1733 79.843 39 79.7097 38.76L63.9497 10.68ZM91.0784 37.08C91.3718 37.08 91.6784 37.08 91.9984 37.08C92.3451 37.0533 92.6651 37 92.9584 36.92C93.2518 36.84 93.4918 36.72 93.6784 36.56C93.8651 36.4 93.9584 36.1733 93.9584 35.88C93.9584 35.56 93.9584 34.9067 93.9584 33.92C93.9851 32.9067 93.9984 31.7467 93.9984 30.44C93.9984 29.1333 93.9984 27.76 93.9984 26.32C94.0251 24.88 94.0384 23.56 94.0384 22.36C94.0384 20.68 94.0251 19.2133 93.9984 17.96C93.9718 16.7067 93.9451 15.6 93.9184 14.64C93.8918 13.6533 93.8651 12.7733 93.8384 12C93.8118 11.2 93.7984 10.4133 93.7984 9.64C93.7984 9.29333 93.7051 9.02667 93.5184 8.84C93.3318 8.62667 93.1051 8.48 92.8384 8.4C92.5718 8.29333 92.2918 8.22666 91.9984 8.2C91.7318 8.17333 91.5051 8.16 91.3184 8.16C91.0251 8.16 90.7051 8.10667 90.3584 8C90.0118 7.89333 89.8384 7.61333 89.8384 7.16C89.8384 6.70667 90.0251 6.42667 90.3984 6.32C90.7718 6.21333 91.0784 6.16 91.3184 6.16H99.3984C100.252 6.16 100.798 6.24 101.038 6.4C101.305 6.53333 101.438 6.78666 101.438 7.16C101.438 7.58666 101.265 7.86667 100.918 8C100.598 8.10667 100.278 8.16 99.9584 8.16C99.8251 8.16 99.5851 8.17333 99.2384 8.2C98.9184 8.2 98.5851 8.22667 98.2384 8.28C97.8918 8.33333 97.5718 8.44 97.2784 8.6C97.0118 8.73333 96.8784 8.92 96.8784 9.16V36.36H105.318C105.718 36.36 106.065 36.2667 106.358 36.08C106.652 35.8933 106.838 35.5733 106.918 35.12C106.945 34.9867 106.985 34.6133 107.038 34C107.092 33.3867 107.145 32.72 107.198 32C107.252 31.28 107.305 30.6 107.358 29.96C107.412 29.2933 107.438 28.8533 107.438 28.64C107.438 28.0267 107.505 27.5467 107.638 27.2C107.798 26.8267 108.172 26.64 108.758 26.64C109.132 26.64 109.452 26.72 109.718 26.88C109.985 27.0133 110.118 27.2667 110.118 27.64C110.118 28.12 110.092 28.8 110.038 29.68C109.985 30.5333 109.918 31.4533 109.838 32.44C109.785 33.4 109.718 34.3733 109.638 35.36C109.585 36.32 109.532 37.1467 109.478 37.84C109.425 38.2933 109.292 38.6 109.078 38.76C108.865 38.92 108.558 39 108.158 39H90.6384C90.1851 39 89.9051 38.88 89.7984 38.64C89.7184 38.3733 89.6784 38.1733 89.6784 38.04C89.6784 37.64 89.7984 37.3867 90.0384 37.28C90.2784 37.1467 90.6251 37.08 91.0784 37.08ZM115.336 22.16C115.762 21.84 116.349 21.4667 117.096 21.04C117.869 20.5867 118.696 20.1067 119.576 19.6C120.482 19.0667 121.389 18.5067 122.296 17.92C123.202 17.3067 124.029 16.6667 124.776 16C125.522 15.3067 126.136 14.5867 126.616 13.84C127.096 13.0933 127.336 12.3067 127.336 11.48C127.336 10.92 127.216 10.4267 126.976 10C126.736 9.57333 126.416 9.21333 126.016 8.92C125.642 8.62667 125.189 8.41333 124.656 8.28C124.149 8.12 123.616 8.04 123.056 8.04C122.336 8.04 121.629 8.16 120.936 8.4C120.242 8.61333 119.576 8.94667 118.936 9.4C118.322 9.82667 117.762 10.3733 117.256 11.04C116.776 11.68 116.402 12.44 116.136 13.32C116.056 13.5333 115.962 13.7733 115.856 14.04C115.776 14.3067 115.656 14.56 115.496 14.8C115.336 15.0133 115.136 15.2 114.896 15.36C114.682 15.4933 114.416 15.56 114.096 15.56C113.802 15.56 113.576 15.5067 113.416 15.4C113.256 15.2933 113.136 15.1733 113.056 15.04C113.002 14.88 112.962 14.7467 112.936 14.64C112.936 14.5067 112.936 14.4267 112.936 14.4C112.936 13.7067 113.136 12.8667 113.536 11.88C113.936 10.8667 114.549 9.89333 115.376 8.96C116.229 8.02667 117.309 7.22667 118.616 6.56C119.922 5.89333 121.482 5.56 123.296 5.56C123.776 5.56 124.402 5.61333 125.176 5.72C125.976 5.8 126.749 6.01333 127.496 6.36C128.269 6.68 128.936 7.18667 129.496 7.88C130.056 8.54667 130.336 9.46667 130.336 10.64C130.336 11.7067 130.096 12.72 129.616 13.68C129.136 14.6133 128.522 15.48 127.776 16.28C127.029 17.08 126.202 17.8133 125.296 18.48C124.389 19.12 123.522 19.68 122.696 20.16C121.869 20.64 121.109 21.04 120.416 21.36C119.749 21.68 119.282 21.8933 119.016 22C119.069 22 119.202 21.9733 119.416 21.92C119.656 21.8667 119.949 21.8133 120.296 21.76C120.669 21.7067 121.069 21.6533 121.496 21.6C121.949 21.5467 122.416 21.52 122.896 21.52C123.962 21.52 124.976 21.68 125.936 22C126.896 22.32 127.736 22.7733 128.456 23.36C129.176 23.9467 129.749 24.6667 130.176 25.52C130.602 26.3467 130.816 27.28 130.816 28.32C130.816 29.7067 130.442 31.08 129.696 32.44C128.976 33.8 127.989 35.0267 126.736 36.12C125.509 37.1867 124.082 38.0533 122.456 38.72C120.856 39.3867 119.176 39.72 117.416 39.72C116.669 39.72 115.949 39.6533 115.256 39.52C114.589 39.3867 113.989 39.2 113.456 38.96C112.922 38.6933 112.496 38.3733 112.176 38C111.856 37.6267 111.696 37.2 111.696 36.72C111.696 36.3467 111.776 36.04 111.936 35.8C112.122 35.56 112.402 35.44 112.776 35.44C113.149 35.44 113.402 35.5733 113.536 35.84C113.669 36.1067 113.922 36.3867 114.296 36.68C114.802 37.0533 115.322 37.28 115.856 37.36C116.416 37.44 116.856 37.48 117.176 37.48C118.216 37.48 119.349 37.2667 120.576 36.84C121.829 36.4133 122.989 35.8267 124.056 35.08C125.122 34.3067 126.016 33.4 126.736 32.36C127.456 31.32 127.816 30.1733 127.816 28.92C127.816 28.0133 127.616 27.2267 127.216 26.56C126.842 25.8933 126.336 25.3467 125.696 24.92C125.082 24.4933 124.376 24.1733 123.576 23.96C122.802 23.7467 122.029 23.64 121.256 23.64C120.509 23.64 119.829 23.72 119.216 23.88C118.629 24.0133 118.096 24.1733 117.616 24.36C117.136 24.5467 116.709 24.72 116.336 24.88C115.962 25.0133 115.656 25.08 115.416 25.08C115.122 25.08 114.856 24.9733 114.616 24.76C114.402 24.52 114.296 24.2133 114.296 23.84C114.296 23.36 114.429 22.9867 114.696 22.72C114.989 22.4533 115.202 22.2667 115.336 22.16ZM136.625 22.16C137.051 21.84 137.638 21.4667 138.385 21.04C139.158 20.5867 139.985 20.1067 140.865 19.6C141.771 19.0667 142.678 18.5067 143.585 17.92C144.491 17.3067 145.318 16.6667 146.065 16C146.811 15.3067 147.425 14.5867 147.905 13.84C148.385 13.0933 148.625 12.3067 148.625 11.48C148.625 10.92 148.505 10.4267 148.265 10C148.025 9.57333 147.705 9.21333 147.305 8.92C146.931 8.62667 146.478 8.41333 145.945 8.28C145.438 8.12 144.905 8.04 144.345 8.04C143.625 8.04 142.918 8.16 142.225 8.4C141.531 8.61333 140.865 8.94667 140.225 9.4C139.611 9.82667 139.051 10.3733 138.545 11.04C138.065 11.68 137.691 12.44 137.425 13.32C137.345 13.5333 137.251 13.7733 137.145 14.04C137.065 14.3067 136.945 14.56 136.785 14.8C136.625 15.0133 136.425 15.2 136.185 15.36C135.971 15.4933 135.705 15.56 135.385 15.56C135.091 15.56 134.865 15.5067 134.705 15.4C134.545 15.2933 134.425 15.1733 134.345 15.04C134.291 14.88 134.251 14.7467 134.225 14.64C134.225 14.5067 134.225 14.4267 134.225 14.4C134.225 13.7067 134.425 12.8667 134.825 11.88C135.225 10.8667 135.838 9.89333 136.665 8.96C137.518 8.02667 138.598 7.22667 139.905 6.56C141.211 5.89333 142.771 5.56 144.585 5.56C145.065 5.56 145.691 5.61333 146.465 5.72C147.265 5.8 148.038 6.01333 148.785 6.36C149.558 6.68 150.225 7.18667 150.785 7.88C151.345 8.54667 151.625 9.46667 151.625 10.64C151.625 11.7067 151.385 12.72 150.905 13.68C150.425 14.6133 149.811 15.48 149.065 16.28C148.318 17.08 147.491 17.8133 146.585 18.48C145.678 19.12 144.811 19.68 143.985 20.16C143.158 20.64 142.398 21.04 141.705 21.36C141.038 21.68 140.571 21.8933 140.305 22C140.358 22 140.491 21.9733 140.705 21.92C140.945 21.8667 141.238 21.8133 141.585 21.76C141.958 21.7067 142.358 21.6533 142.785 21.6C143.238 21.5467 143.705 21.52 144.185 21.52C145.251 21.52 146.265 21.68 147.225 22C148.185 22.32 149.025 22.7733 149.745 23.36C150.465 23.9467 151.038 24.6667 151.465 25.52C151.891 26.3467 152.105 27.28 152.105 28.32C152.105 29.7067 151.731 31.08 150.985 32.44C150.265 33.8 149.278 35.0267 148.025 36.12C146.798 37.1867 145.371 38.0533 143.745 38.72C142.145 39.3867 140.465 39.72 138.705 39.72C137.958 39.72 137.238 39.6533 136.545 39.52C135.878 39.3867 135.278 39.2 134.745 38.96C134.211 38.6933 133.785 38.3733 133.465 38C133.145 37.6267 132.985 37.2 132.985 36.72C132.985 36.3467 133.065 36.04 133.225 35.8C133.411 35.56 133.691 35.44 134.065 35.44C134.438 35.44 134.691 35.5733 134.825 35.84C134.958 36.1067 135.211 36.3867 135.585 36.68C136.091 37.0533 136.611 37.28 137.145 37.36C137.705 37.44 138.145 37.48 138.465 37.48C139.505 37.48 140.638 37.2667 141.865 36.84C143.118 36.4133 144.278 35.8267 145.345 35.08C146.411 34.3067 147.305 33.4 148.025 32.36C148.745 31.32 149.105 30.1733 149.105 28.92C149.105 28.0133 148.905 27.2267 148.505 26.56C148.131 25.8933 147.625 25.3467 146.985 24.92C146.371 24.4933 145.665 24.1733 144.865 23.96C144.091 23.7467 143.318 23.64 142.545 23.64C141.798 23.64 141.118 23.72 140.505 23.88C139.918 24.0133 139.385 24.1733 138.905 24.36C138.425 24.5467 137.998 24.72 137.625 24.88C137.251 25.0133 136.945 25.08 136.705 25.08C136.411 25.08 136.145 24.9733 135.905 24.76C135.691 24.52 135.585 24.2133 135.585 23.84C135.585 23.36 135.718 22.9867 135.985 22.72C136.278 22.4533 136.491 22.2667 136.625 22.16ZM162.114 10.68V36.96H166.114C166.407 36.96 166.674 37.04 166.914 37.2C167.18 37.3333 167.314 37.6 167.314 38C167.314 38.6667 167.047 39 166.514 39H157.474C157.1 39 156.727 38.9467 156.354 38.84C156.007 38.7067 155.834 38.4267 155.834 38C155.834 37.6533 155.967 37.4133 156.234 37.28C156.5 37.1467 156.754 37.08 156.994 37.08C157.154 37.08 157.327 37.08 157.514 37.08C157.727 37.0533 157.927 36.9867 158.114 36.88C158.327 36.7467 158.5 36.56 158.634 36.32C158.794 36.0533 158.887 35.6933 158.914 35.24C158.967 33.4267 159.034 31.52 159.114 29.52C159.22 27.4933 159.274 25.48 159.274 23.48C159.274 21.1867 159.247 18.8267 159.194 16.4C159.167 13.9467 159.154 11.64 159.154 9.48C159.154 9.08 158.927 8.81333 158.474 8.68C158.047 8.54667 157.567 8.44 157.034 8.36C156.5 8.25333 156.007 8.10667 155.554 7.92C155.127 7.73333 154.914 7.37333 154.914 6.84C154.914 6.38667 155.687 6.16 157.234 6.16H162.754C163.074 6.16 163.327 6.26667 163.514 6.48C163.7 6.66666 163.98 7.09333 164.354 7.76C164.78 8.56 165.38 9.68 166.154 11.12C166.927 12.56 167.78 14.16 168.714 15.92C169.674 17.6533 170.647 19.4667 171.634 21.36C172.647 23.2267 173.58 24.9867 174.434 26.64C175.314 28.2933 176.074 29.76 176.714 31.04C177.354 32.2933 177.794 33.1867 178.034 33.72V9.76C178.034 9.52 177.954 9.34667 177.794 9.24C177.634 9.10667 177.434 9.01333 177.194 8.96C176.954 8.90667 176.7 8.88 176.434 8.88C176.194 8.85333 175.994 8.84 175.834 8.84C175.54 8.84 175.22 8.77333 174.874 8.64C174.527 8.50666 174.354 8.21333 174.354 7.76C174.354 7.14667 174.847 6.84 175.834 6.84H184.074C184.927 6.84 185.474 6.90667 185.714 7.04C185.98 7.17333 186.114 7.41333 186.114 7.76C186.114 8.21333 185.94 8.50666 185.594 8.64C185.274 8.77333 184.954 8.84 184.634 8.84C184.5 8.84 184.234 8.85333 183.834 8.88C183.46 8.88 183.06 8.90667 182.634 8.96C182.207 9.01333 181.82 9.12 181.474 9.28C181.154 9.41333 180.994 9.6 180.994 9.84C180.967 11.3067 180.94 12.6 180.914 13.72C180.914 14.8133 180.9 15.8933 180.874 16.96C180.874 18 180.86 19.0933 180.834 20.24C180.834 21.3867 180.834 22.7333 180.834 24.28C180.834 25.16 180.834 26.2 180.834 27.4C180.86 28.6 180.874 29.84 180.874 31.12C180.874 32.4 180.874 33.6667 180.874 34.92C180.9 36.1467 180.914 37.2267 180.914 38.16C180.914 38.5333 180.78 38.84 180.514 39.08C180.274 39.32 179.94 39.44 179.514 39.44C179.14 39.44 178.807 39.3867 178.514 39.28C178.22 39.1733 178.007 39 177.874 38.76L162.114 10.68Z" fill="white"/>
<path d="M107.293 65.1953L107.098 65.5664C106.277 67.0964 105.867 68.2812 105.867 69.1211C105.867 69.3685 105.962 69.6094 106.15 69.8438C105.994 69.8958 105.643 70.0228 105.096 70.2246C104.842 70.3158 104.601 70.3613 104.373 70.3613C103.917 70.3613 103.689 70.1432 103.689 69.707C103.689 68.8021 104.253 67.4219 105.379 65.5664L105.682 65.0684H105.184C104.116 65.0684 103.289 65.2344 102.703 65.5664C103.009 64.4661 103.833 63.916 105.174 63.916L106.385 63.9453L106.648 63.5547C107.671 62.0182 109.233 59.9512 111.336 57.3535C112.046 56.4746 112.576 55.9277 112.928 55.7129C113.279 55.498 113.96 55.3027 114.969 55.127C114.78 56.2988 114.686 57.3893 114.686 58.3984C114.686 61.0742 114.995 63.7858 115.613 66.5332C115.952 68.0436 116.469 69.0169 117.166 69.4531C116.554 70.0586 116.03 70.3613 115.594 70.3613C114.565 70.3613 113.771 68.597 113.211 65.0684C112.137 65.1855 111.053 65.2441 109.959 65.2441L107.293 65.1953ZM107.996 64.043L109.969 64.0918C111.316 64.0918 112.348 64.0462 113.064 63.9551C112.765 61.6699 112.615 59.7754 112.615 58.2715L112.625 57.5391C112.41 57.8125 111.928 58.4049 111.18 59.3164C109.826 60.9766 108.833 62.4251 108.201 63.6621L107.996 64.043ZM137.693 63.8574L136.346 70.6055C136.222 71.224 136.16 71.6243 136.16 71.8066C136.16 71.9889 136.202 72.1842 136.287 72.3926C135.63 72.7246 135.027 72.8906 134.48 72.8906C134.142 72.8906 133.973 72.7539 133.973 72.4805C133.973 72.3372 134.038 71.9336 134.168 71.2695L135.643 63.8574H135.496C134.91 63.8574 134.279 63.9974 133.602 64.2773C133.921 63.5872 134.201 63.1445 134.441 62.9492C134.689 62.7474 135.079 62.6465 135.613 62.6465H135.877L137.049 56.8066H136.834C135.415 56.8066 134.285 57.194 133.445 57.9688C133.699 56.9401 134.139 56.2533 134.764 55.9082C135.206 55.6673 136.58 55.5469 138.885 55.5469H141.453C143.367 55.5469 144.959 55.3776 146.229 55.0391C145.825 55.7487 145.402 56.224 144.959 56.4648C144.523 56.6992 143.849 56.8164 142.938 56.8164L142.078 56.8066H139.09L137.928 62.6465H140.037C141.346 62.6465 142.426 62.4805 143.279 62.1484C142.967 62.8841 142.605 63.3529 142.195 63.5547C141.792 63.7565 140.994 63.8574 139.803 63.8574H137.693ZM156.434 62.041C155.086 64.5996 153.732 66.6081 152.371 68.0664C151.01 69.5182 149.806 70.2441 148.758 70.2441C147.996 70.2441 147.381 69.9512 146.912 69.3652C146.443 68.7728 146.209 68.0013 146.209 67.0508C146.209 66.5169 146.307 65.7617 146.502 64.7852L148.445 55C148.191 55.0391 147.97 55.0586 147.781 55.0586C146.284 55.0586 145.535 54.4336 145.535 53.1836V52.959C146.316 53.4017 147.199 53.623 148.182 53.623C149.165 53.623 150.024 53.3789 150.76 52.8906L148.494 64.6387C148.292 65.6934 148.191 66.4193 148.191 66.8164C148.191 67.9167 148.595 68.4668 149.402 68.4668C150.184 68.4668 150.968 68.0273 151.756 67.1484C152.55 66.263 153.849 64.3815 155.652 61.5039L156.434 62.041ZM164.197 62.8027C164.217 62.959 164.227 63.099 164.227 63.2227C164.227 65.1042 163.589 66.7448 162.312 68.1445C161.036 69.5443 159.542 70.2441 157.83 70.2441C156.521 70.2441 155.454 69.8275 154.627 68.9941C153.807 68.1543 153.396 67.0671 153.396 65.7324C153.396 64.2155 153.927 62.9004 154.988 61.7871C156.056 60.6738 157.312 60.1172 158.758 60.1172C158.979 60.1172 159.214 60.1465 159.461 60.2051C159.298 59.9121 159.217 59.6647 159.217 59.4629C159.217 59.1504 159.324 58.8509 159.539 58.5645C161.128 58.6947 162.449 59.5085 163.504 61.0059C164.585 61.7415 165.711 62.1094 166.883 62.1094C167.645 62.1094 168.468 61.8522 169.354 61.3379L169.842 62.168C168.807 62.8906 167.745 63.252 166.658 63.252C165.936 63.252 165.115 63.1022 164.197 62.8027ZM161.98 61.9727C161.44 61.8099 160.942 61.5495 160.486 61.1914C160.154 61.1198 159.878 61.084 159.656 61.084C158.549 61.084 157.566 61.582 156.707 62.5781C155.854 63.5742 155.428 64.7103 155.428 65.9863C155.428 66.9108 155.685 67.6725 156.199 68.2715C156.72 68.8639 157.387 69.1602 158.201 69.1602C159.301 69.1602 160.249 68.6068 161.043 67.5C161.837 66.3867 162.234 65.0618 162.234 63.5254C162.234 62.9915 162.15 62.474 161.98 61.9727ZM169.52 69.9316C169.077 70.14 168.722 70.2441 168.455 70.2441C167.791 70.2441 167.459 69.9512 167.459 69.3652C167.459 69.0658 167.576 68.3203 167.811 67.1289L168.299 64.6973C168.598 63.252 168.748 62.181 168.748 61.4844C168.748 61.1068 168.641 60.791 168.426 60.5371C169.109 60.3027 169.666 60.1855 170.096 60.1855C170.551 60.1855 170.779 60.4753 170.779 61.0547C170.779 61.4128 170.617 62.3535 170.291 63.877L169.734 66.7188C170.965 64.3294 172.202 62.474 173.445 61.1523C174.695 59.8242 175.828 59.1602 176.844 59.1602C177.202 59.1602 177.511 59.2643 177.771 59.4727C178.032 59.6745 178.162 59.9219 178.162 60.2148C178.162 60.6706 177.667 61.276 176.678 62.0312C176.43 61.5169 176.079 61.2598 175.623 61.2598C174.796 61.2598 173.742 62.1387 172.459 63.8965C171.665 64.9902 170.975 66.1198 170.389 67.2852C169.803 68.444 169.51 69.2708 169.51 69.7656L169.52 69.9316ZM189.549 62.0117C188.077 64.5898 186.59 66.6081 185.086 68.0664C183.582 69.5182 182.231 70.2441 181.033 70.2441C180.304 70.2441 179.715 70.0065 179.266 69.5312C178.823 69.056 178.602 68.431 178.602 67.6562C178.602 67.3633 178.667 66.8978 178.797 66.2598L179.012 65.1855C179.331 63.6361 179.49 62.5488 179.49 61.9238C179.49 61.5527 179.38 61.25 179.158 61.0156C180.005 60.8203 180.535 60.7227 180.75 60.7227C181.232 60.7227 181.473 61.0612 181.473 61.7383C181.473 62.2396 181.378 62.959 181.189 63.8965L180.809 65.8008C180.62 66.7188 180.525 67.3145 180.525 67.5879C180.525 68.3952 180.867 68.7988 181.551 68.7988C182.365 68.7988 183.449 68.1152 184.803 66.748C186.157 65.3743 187.469 63.6361 188.738 61.5332L189.549 62.0117ZM180.857 57.0898L180.994 57.0996C181.43 57.0801 182.055 56.862 182.869 56.4453C183.689 56.0221 184.331 55.5924 184.793 55.1562C184.507 56.0547 183.999 56.8066 183.27 57.4121C182.163 58.3366 181.414 58.7988 181.023 58.7988C180.763 58.7988 180.633 58.6393 180.633 58.3203C180.633 57.8646 180.708 57.4544 180.857 57.0898ZM192.645 66.5625C192.866 67.0573 192.977 67.5293 192.977 67.9785C192.977 68.9746 192.56 69.8405 191.727 70.5762C190.893 71.3184 189.917 71.6895 188.797 71.6895C188.139 71.6895 187.579 71.5202 187.117 71.1816C186.655 70.8431 186.424 70.4362 186.424 69.9609C186.424 69.4531 186.74 68.9388 187.371 68.418C188.009 67.8971 189.074 67.2786 190.564 66.5625L189.783 65.3027C188.833 63.7728 188.357 62.5781 188.357 61.7188C188.357 60.4818 189.077 59.4857 190.516 58.7305C191.401 59.069 191.844 59.4954 191.844 60.0098C191.844 60.7389 191.281 61.4388 190.154 62.1094L191.268 64.1602L192.137 65.7422C193.38 65 194.318 64.3652 194.949 63.8379C195.581 63.304 196.378 62.4837 197.342 61.377L198.123 61.8555C196.723 63.7305 194.897 65.2995 192.645 66.5625ZM190.984 67.4414C189.07 68.4701 188.113 69.2676 188.113 69.834C188.113 70.3678 188.501 70.6348 189.275 70.6348C189.848 70.6348 190.314 70.4395 190.672 70.0488C191.03 69.6647 191.209 69.1667 191.209 68.5547C191.209 68.1901 191.134 67.819 190.984 67.4414ZM202.83 66.1328C203.006 66.4518 203.094 66.7318 203.094 66.9727C203.094 67.6107 202.553 68.3171 201.473 69.0918C200.398 69.86 199.419 70.2441 198.533 70.2441C197.752 70.2441 197.114 69.8958 196.619 69.1992C196.131 68.5026 195.887 67.6042 195.887 66.5039C195.887 65.2799 196.209 63.5384 196.854 61.2793L197.303 59.6387H195.652C194.962 59.6387 194.412 59.7363 194.002 59.9316C194.38 59.2415 194.692 58.8086 194.939 58.6328C195.187 58.457 195.607 58.3691 196.199 58.3691H197.674L197.869 57.6953C198.169 56.6927 198.527 56.0059 198.943 55.6348C199.36 55.2572 199.985 55.0684 200.818 55.0684C200.916 55.0684 201.072 55.0749 201.287 55.0879C200.779 55.7389 200.252 56.8327 199.705 58.3691H204.861C205.766 58.3691 206.456 58.252 206.932 58.0176C206.769 58.6882 206.551 59.1276 206.277 59.3359C206.01 59.5378 205.509 59.6387 204.773 59.6387H199.285C199.22 59.8535 199.171 60.013 199.139 60.1172C198.351 62.7995 197.957 64.8242 197.957 66.1914C197.957 67.7018 198.501 68.457 199.588 68.457C200.148 68.457 200.757 68.2194 201.414 67.7441C202.078 67.2689 202.55 66.7318 202.83 66.1328ZM217.762 66.5918C217.762 67.653 218.051 68.4863 218.631 69.0918C219.217 69.6973 220.024 70 221.053 70C221.964 70 222.755 69.7266 223.426 69.1797C224.096 68.6328 224.432 67.9915 224.432 67.2559C224.432 66.4681 223.693 65.3841 222.215 64.0039L221.141 63.0078C219.767 61.7318 219.08 60.5566 219.08 59.4824C219.08 58.2324 219.568 57.2038 220.545 56.3965C221.521 55.5892 222.765 55.1855 224.275 55.1855C225.076 55.1855 225.724 55.3092 226.219 55.5566C226.714 55.7975 226.961 56.1133 226.961 56.5039C226.961 56.888 226.785 57.334 226.434 57.8418C225.867 56.748 224.946 56.2012 223.67 56.2012C222.876 56.2012 222.205 56.4486 221.658 56.9434C221.118 57.4316 220.848 58.0371 220.848 58.7598C220.848 59.2415 220.936 59.6094 221.111 59.8633C221.294 60.1172 221.85 60.6706 222.781 61.5234L223.66 62.334C225.262 63.8249 226.062 65.1628 226.062 66.3477C226.062 67.7279 225.516 68.8737 224.422 69.7852C223.328 70.6901 221.951 71.1426 220.291 71.1426C219.178 71.1426 218.257 70.8822 217.527 70.3613C216.805 69.8405 216.443 69.1829 216.443 68.3887C216.443 67.8483 216.883 67.2493 217.762 66.5918ZM236.346 66.1328C236.521 66.4518 236.609 66.7318 236.609 66.9727C236.609 67.6107 236.069 68.3171 234.988 69.0918C233.914 69.86 232.934 70.2441 232.049 70.2441C231.268 70.2441 230.63 69.8958 230.135 69.1992C229.646 68.5026 229.402 67.6042 229.402 66.5039C229.402 65.2799 229.725 63.5384 230.369 61.2793L230.818 59.6387H229.168C228.478 59.6387 227.928 59.7363 227.518 59.9316C227.895 59.2415 228.208 58.8086 228.455 58.6328C228.702 58.457 229.122 58.3691 229.715 58.3691H231.189L231.385 57.6953C231.684 56.6927 232.042 56.0059 232.459 55.6348C232.876 55.2572 233.501 55.0684 234.334 55.0684C234.432 55.0684 234.588 55.0749 234.803 55.0879C234.295 55.7389 233.768 56.8327 233.221 58.3691H238.377C239.282 58.3691 239.972 58.252 240.447 58.0176C240.285 58.6882 240.066 59.1276 239.793 59.3359C239.526 59.5378 239.025 59.6387 238.289 59.6387H232.801C232.736 59.8535 232.687 60.013 232.654 60.1172C231.867 62.7995 231.473 64.8242 231.473 66.1914C231.473 67.7018 232.016 68.457 233.104 68.457C233.663 68.457 234.272 68.2194 234.93 67.7441C235.594 67.2689 236.066 66.7318 236.346 66.1328ZM248.201 62.8027C248.221 62.959 248.23 63.099 248.23 63.2227C248.23 65.1042 247.592 66.7448 246.316 68.1445C245.04 69.5443 243.546 70.2441 241.834 70.2441C240.525 70.2441 239.458 69.8275 238.631 68.9941C237.811 68.1543 237.4 67.0671 237.4 65.7324C237.4 64.2155 237.931 62.9004 238.992 61.7871C240.06 60.6738 241.316 60.1172 242.762 60.1172C242.983 60.1172 243.217 60.1465 243.465 60.2051C243.302 59.9121 243.221 59.6647 243.221 59.4629C243.221 59.1504 243.328 58.8509 243.543 58.5645C245.132 58.6947 246.453 59.5085 247.508 61.0059C248.589 61.7415 249.715 62.1094 250.887 62.1094C251.648 62.1094 252.472 61.8522 253.357 61.3379L253.846 62.168C252.811 62.8906 251.749 63.252 250.662 63.252C249.939 63.252 249.119 63.1022 248.201 62.8027ZM245.984 61.9727C245.444 61.8099 244.946 61.5495 244.49 61.1914C244.158 61.1198 243.882 61.084 243.66 61.084C242.553 61.084 241.57 61.582 240.711 62.5781C239.858 63.5742 239.432 64.7103 239.432 65.9863C239.432 66.9108 239.689 67.6725 240.203 68.2715C240.724 68.8639 241.391 69.1602 242.205 69.1602C243.305 69.1602 244.253 68.6068 245.047 67.5C245.841 66.3867 246.238 65.0618 246.238 63.5254C246.238 62.9915 246.154 62.474 245.984 61.9727ZM253.523 69.9316C253.081 70.14 252.726 70.2441 252.459 70.2441C251.795 70.2441 251.463 69.9512 251.463 69.3652C251.463 69.0658 251.58 68.3203 251.814 67.1289L252.303 64.6973C252.602 63.252 252.752 62.181 252.752 61.4844C252.752 61.1068 252.645 60.791 252.43 60.5371C253.113 60.3027 253.67 60.1855 254.1 60.1855C254.555 60.1855 254.783 60.4753 254.783 61.0547C254.783 61.4128 254.62 62.3535 254.295 63.877L253.738 66.7188C254.969 64.3294 256.206 62.474 257.449 61.1523C258.699 59.8242 259.832 59.1602 260.848 59.1602C261.206 59.1602 261.515 59.2643 261.775 59.4727C262.036 59.6745 262.166 59.9219 262.166 60.2148C262.166 60.6706 261.671 61.276 260.682 62.0312C260.434 61.5169 260.083 61.2598 259.627 61.2598C258.8 61.2598 257.745 62.1387 256.463 63.8965C255.669 64.9902 254.979 66.1198 254.393 67.2852C253.807 68.444 253.514 69.2708 253.514 69.7656L253.523 69.9316ZM263.943 65.9375C263.943 67.8451 264.751 68.7988 266.365 68.7988C267.765 68.7988 269.308 68.1315 270.994 66.7969C272.68 65.4622 274.201 63.7044 275.555 61.5234L276.385 61.9824C275.109 64.3652 273.449 66.3379 271.404 67.9004C269.367 69.4629 267.433 70.2441 265.604 70.2441C264.432 70.2441 263.504 69.8665 262.82 69.1113C262.143 68.3561 261.805 67.3242 261.805 66.0156C261.805 64.1276 262.42 62.513 263.65 61.1719C264.887 59.8307 266.375 59.1602 268.113 59.1602C268.953 59.1602 269.624 59.3717 270.125 59.7949C270.633 60.2181 270.887 60.7845 270.887 61.4941C270.887 62.6595 270.184 63.6914 268.777 64.5898C267.378 65.4883 265.766 65.9375 263.943 65.9375ZM264.021 65C265.382 64.9284 266.548 64.5378 267.518 63.8281C268.494 63.1185 268.982 62.2982 268.982 61.3672C268.982 60.5339 268.611 60.1172 267.869 60.1172C266.984 60.1172 266.167 60.5924 265.418 61.543C264.669 62.4935 264.204 63.6458 264.021 65Z" fill="#6A0B4F"/>
</svg>
