<svg width="191" height="64" viewBox="0 0 191 64" fill="none" xmlns="http://www.w3.org/2000/svg">
<path d="M80.4404 54.9917L80.3135 55.2329C79.7803 56.2274 79.5137 56.9976 79.5137 57.5435C79.5137 57.7043 79.575 57.8608 79.6978 58.0132C79.5962 58.047 79.3677 58.1296 79.0122 58.2607C78.8472 58.32 78.6906 58.3496 78.5425 58.3496C78.2463 58.3496 78.0981 58.2078 78.0981 57.9243C78.0981 57.3361 78.4642 56.439 79.1963 55.2329L79.3931 54.9092H79.0693C78.3753 54.9092 77.8379 55.0171 77.457 55.2329C77.6559 54.5177 78.1912 54.1602 79.063 54.1602L79.8501 54.1792L80.0215 53.9253C80.6859 52.9266 81.7015 51.583 83.0684 49.8945C83.5296 49.3232 83.8745 48.9678 84.103 48.8281C84.3315 48.6885 84.7738 48.5615 85.4297 48.4473C85.307 49.209 85.2456 49.9178 85.2456 50.5737C85.2456 52.313 85.4466 54.0755 85.8486 55.8613C86.0687 56.8431 86.4051 57.4757 86.8579 57.7593C86.4601 58.1528 86.1195 58.3496 85.8359 58.3496C85.1673 58.3496 84.651 57.2028 84.2871 54.9092C83.5889 54.9854 82.8843 55.0234 82.1733 55.0234L80.4404 54.9917ZM80.8975 54.2427L82.1797 54.2744C83.0557 54.2744 83.7264 54.2448 84.1919 54.1855C83.9972 52.7002 83.8999 51.4688 83.8999 50.4912L83.9062 50.0151C83.7666 50.1929 83.4535 50.578 82.9668 51.1704C82.0866 52.2495 81.4412 53.1911 81.0308 53.9951L80.8975 54.2427ZM100.201 54.1221L99.3247 58.5083C99.2443 58.9103 99.2041 59.1706 99.2041 59.2891C99.2041 59.4076 99.2316 59.5345 99.2866 59.6699C98.8592 59.8857 98.4678 59.9937 98.1123 59.9937C97.8923 59.9937 97.7822 59.9048 97.7822 59.7271C97.7822 59.634 97.8245 59.3716 97.9092 58.9399L98.8677 54.1221H98.7725C98.3916 54.1221 97.9811 54.2131 97.541 54.395C97.7484 53.9465 97.9303 53.6587 98.0869 53.5317C98.2477 53.4006 98.5016 53.335 98.8486 53.335H99.02L99.7817 49.5391H99.6421C98.7196 49.5391 97.9854 49.7909 97.4395 50.2944C97.6045 49.6258 97.8901 49.1794 98.2964 48.9551C98.5841 48.7985 99.4771 48.7202 100.975 48.7202H102.645C103.889 48.7202 104.923 48.6102 105.749 48.3901C105.486 48.8514 105.211 49.1603 104.923 49.3169C104.64 49.4692 104.202 49.5454 103.609 49.5454L103.051 49.5391H101.108L100.353 53.335H101.724C102.575 53.335 103.277 53.2271 103.832 53.0112C103.628 53.4894 103.394 53.7941 103.127 53.9253C102.865 54.0565 102.346 54.1221 101.572 54.1221H100.201ZM112.382 52.9414C111.506 54.6045 110.626 55.91 109.741 56.8579C108.857 57.8016 108.074 58.2734 107.393 58.2734C106.897 58.2734 106.498 58.083 106.193 57.7021C105.888 57.3171 105.736 56.8156 105.736 56.1978C105.736 55.8507 105.799 55.3599 105.926 54.7251L107.189 48.3647C107.024 48.3901 106.881 48.4028 106.758 48.4028C105.785 48.4028 105.298 47.9966 105.298 47.1841V47.0381C105.806 47.3258 106.379 47.4697 107.018 47.4697C107.657 47.4697 108.216 47.311 108.694 46.9937L107.221 54.6299C107.09 55.3154 107.024 55.7873 107.024 56.0454C107.024 56.7606 107.287 57.1182 107.812 57.1182C108.319 57.1182 108.829 56.8325 109.341 56.2612C109.858 55.6857 110.702 54.4627 111.874 52.5923L112.382 52.9414ZM117.428 53.4365C117.441 53.5381 117.447 53.6291 117.447 53.7095C117.447 54.9325 117.033 55.9989 116.203 56.9087C115.374 57.8185 114.403 58.2734 113.29 58.2734C112.439 58.2734 111.745 58.0026 111.208 57.4609C110.674 56.915 110.408 56.2083 110.408 55.3408C110.408 54.3548 110.753 53.5 111.442 52.7764C112.136 52.0527 112.953 51.6909 113.893 51.6909C114.036 51.6909 114.189 51.71 114.35 51.748C114.244 51.5576 114.191 51.3968 114.191 51.2656C114.191 51.0625 114.261 50.8678 114.4 50.6816C115.433 50.7663 116.292 51.2952 116.978 52.2686C117.68 52.7467 118.412 52.9858 119.174 52.9858C119.669 52.9858 120.204 52.8187 120.78 52.4844L121.097 53.0239C120.424 53.4937 119.735 53.7285 119.028 53.7285C118.558 53.7285 118.025 53.6312 117.428 53.4365ZM115.987 52.897C115.636 52.7912 115.312 52.6219 115.016 52.3892C114.8 52.3426 114.62 52.3193 114.477 52.3193C113.757 52.3193 113.118 52.6431 112.56 53.2905C112.005 53.938 111.728 54.6764 111.728 55.5059C111.728 56.1068 111.895 56.6019 112.229 56.9912C112.568 57.3763 113.002 57.5688 113.531 57.5688C114.246 57.5688 114.862 57.2091 115.378 56.4897C115.894 55.7661 116.152 54.9049 116.152 53.9062C116.152 53.5592 116.097 53.2228 115.987 52.897ZM120.888 58.0703C120.6 58.2057 120.369 58.2734 120.196 58.2734C119.764 58.2734 119.548 58.083 119.548 57.7021C119.548 57.5075 119.625 57.0229 119.777 56.2485L120.094 54.668C120.289 53.7285 120.386 53.0324 120.386 52.5796C120.386 52.3341 120.316 52.1289 120.177 51.9639C120.621 51.8115 120.983 51.7354 121.262 51.7354C121.558 51.7354 121.707 51.9237 121.707 52.3003C121.707 52.533 121.601 53.1445 121.389 54.1348L121.027 55.9819C121.827 54.4289 122.631 53.2228 123.439 52.3638C124.252 51.5005 124.988 51.0688 125.648 51.0688C125.881 51.0688 126.082 51.1366 126.251 51.272C126.421 51.4032 126.505 51.564 126.505 51.7544C126.505 52.0506 126.184 52.4442 125.541 52.9351C125.38 52.6007 125.151 52.4336 124.855 52.4336C124.318 52.4336 123.632 53.0049 122.798 54.1475C122.282 54.8584 121.833 55.5926 121.453 56.3501C121.072 57.1034 120.881 57.6408 120.881 57.9624L120.888 58.0703ZM133.907 52.9224C132.95 54.5981 131.983 55.91 131.006 56.8579C130.028 57.8016 129.15 58.2734 128.372 58.2734C127.898 58.2734 127.515 58.119 127.223 57.8101C126.935 57.5011 126.791 57.0949 126.791 56.5913C126.791 56.4009 126.833 56.0983 126.918 55.6836L127.058 54.9854C127.265 53.9782 127.369 53.2715 127.369 52.8652C127.369 52.624 127.297 52.4272 127.153 52.2749C127.703 52.1479 128.048 52.0845 128.188 52.0845C128.501 52.0845 128.657 52.3045 128.657 52.7446C128.657 53.0705 128.596 53.5381 128.473 54.1475L128.226 55.3853C128.103 55.9819 128.042 56.3691 128.042 56.5469C128.042 57.0716 128.264 57.334 128.708 57.334C129.237 57.334 129.942 56.8896 130.822 56.001C131.702 55.1081 132.555 53.9782 133.38 52.6113L133.907 52.9224ZM128.257 49.7231L128.346 49.7295C128.63 49.7168 129.036 49.575 129.565 49.3042C130.098 49.0291 130.515 48.7498 130.815 48.4663C130.629 49.0503 130.299 49.5391 129.825 49.9326C129.106 50.5335 128.619 50.834 128.365 50.834C128.196 50.834 128.111 50.7303 128.111 50.5229C128.111 50.2267 128.16 49.9601 128.257 49.7231ZM135.919 55.8804C136.063 56.202 136.135 56.5088 136.135 56.8008C136.135 57.4482 135.864 58.0111 135.322 58.4893C134.781 58.9717 134.146 59.2129 133.418 59.2129C132.991 59.2129 132.627 59.1029 132.326 58.8828C132.026 58.6628 131.875 58.3983 131.875 58.0894C131.875 57.7593 132.081 57.425 132.491 57.0864C132.906 56.7479 133.598 56.3459 134.567 55.8804L134.059 55.0615C133.441 54.0671 133.132 53.2905 133.132 52.7319C133.132 51.9279 133.6 51.2804 134.535 50.7896C135.111 51.0096 135.398 51.2868 135.398 51.6211C135.398 52.0951 135.032 52.55 134.3 52.9858L135.024 54.3188L135.589 55.3472C136.397 54.8647 137.007 54.4521 137.417 54.1094C137.827 53.7624 138.346 53.2292 138.972 52.5098L139.48 52.8208C138.57 54.0396 137.383 55.0594 135.919 55.8804ZM134.84 56.4517C133.596 57.1203 132.974 57.6387 132.974 58.0068C132.974 58.3538 133.225 58.5273 133.729 58.5273C134.101 58.5273 134.404 58.4004 134.637 58.1465C134.869 57.8968 134.986 57.5731 134.986 57.1753C134.986 56.9383 134.937 56.6971 134.84 56.4517ZM142.54 55.6011C142.654 55.8084 142.711 55.9904 142.711 56.147C142.711 56.5617 142.36 57.0208 141.657 57.5244C140.959 58.0238 140.322 58.2734 139.747 58.2734C139.239 58.2734 138.824 58.047 138.502 57.5942C138.185 57.1414 138.026 56.5575 138.026 55.8423C138.026 55.0467 138.236 53.9147 138.655 52.4463L138.947 51.3799H137.874C137.425 51.3799 137.068 51.4434 136.801 51.5703C137.047 51.1217 137.25 50.8403 137.411 50.7261C137.571 50.6118 137.844 50.5547 138.229 50.5547H139.188L139.315 50.1167C139.51 49.465 139.742 49.0186 140.013 48.7773C140.284 48.5319 140.69 48.4092 141.232 48.4092C141.295 48.4092 141.397 48.4134 141.537 48.4219C141.207 48.8451 140.864 49.556 140.508 50.5547H143.86C144.448 50.5547 144.897 50.4785 145.206 50.3262C145.1 50.762 144.958 51.0477 144.78 51.1831C144.607 51.3143 144.281 51.3799 143.803 51.3799H140.235C140.193 51.5195 140.161 51.6232 140.14 51.6909C139.628 53.4344 139.372 54.7505 139.372 55.6392C139.372 56.6209 139.725 57.1118 140.432 57.1118C140.796 57.1118 141.192 56.9574 141.619 56.6484C142.051 56.3395 142.358 55.9904 142.54 55.6011ZM152.245 55.8994C152.245 56.5892 152.433 57.1309 152.81 57.5244C153.191 57.918 153.716 58.1147 154.384 58.1147C154.977 58.1147 155.491 57.937 155.927 57.5815C156.363 57.2261 156.581 56.8092 156.581 56.3311C156.581 55.819 156.1 55.1144 155.14 54.2173L154.441 53.5698C153.549 52.7404 153.102 51.9766 153.102 51.2783C153.102 50.4658 153.419 49.7972 154.054 49.2725C154.689 48.7477 155.497 48.4854 156.479 48.4854C157 48.4854 157.421 48.5658 157.742 48.7266C158.064 48.8831 158.225 49.0884 158.225 49.3423C158.225 49.592 158.11 49.8818 157.882 50.2119C157.514 49.501 156.915 49.1455 156.085 49.1455C155.569 49.1455 155.133 49.3063 154.778 49.6279C154.427 49.9453 154.251 50.3389 154.251 50.8086C154.251 51.1217 154.308 51.3608 154.422 51.5259C154.541 51.6909 154.903 52.0506 155.508 52.605L156.079 53.1318C157.12 54.1009 157.641 54.9705 157.641 55.7407C157.641 56.6379 157.285 57.3826 156.574 57.9751C155.863 58.5633 154.968 58.8574 153.889 58.8574C153.166 58.8574 152.567 58.6882 152.093 58.3496C151.623 58.0111 151.388 57.5837 151.388 57.0674C151.388 56.7161 151.674 56.3268 152.245 55.8994ZM164.325 55.6011C164.439 55.8084 164.496 55.9904 164.496 56.147C164.496 56.5617 164.145 57.0208 163.442 57.5244C162.744 58.0238 162.107 58.2734 161.532 58.2734C161.024 58.2734 160.609 58.047 160.288 57.5942C159.97 57.1414 159.812 56.5575 159.812 55.8423C159.812 55.0467 160.021 53.9147 160.44 52.4463L160.732 51.3799H159.659C159.211 51.3799 158.853 51.4434 158.586 51.5703C158.832 51.1217 159.035 50.8403 159.196 50.7261C159.357 50.6118 159.63 50.5547 160.015 50.5547H160.973L161.1 50.1167C161.295 49.465 161.528 49.0186 161.798 48.7773C162.069 48.5319 162.475 48.4092 163.017 48.4092C163.081 48.4092 163.182 48.4134 163.322 48.4219C162.992 48.8451 162.649 49.556 162.293 50.5547H165.645C166.233 50.5547 166.682 50.4785 166.991 50.3262C166.885 50.762 166.743 51.0477 166.565 51.1831C166.392 51.3143 166.066 51.3799 165.588 51.3799H162.021C161.978 51.5195 161.946 51.6232 161.925 51.6909C161.413 53.4344 161.157 54.7505 161.157 55.6392C161.157 56.6209 161.511 57.1118 162.217 57.1118C162.581 57.1118 162.977 56.9574 163.404 56.6484C163.836 56.3395 164.143 55.9904 164.325 55.6011ZM172.031 53.4365C172.043 53.5381 172.05 53.6291 172.05 53.7095C172.05 54.9325 171.635 55.9989 170.806 56.9087C169.976 57.8185 169.005 58.2734 167.892 58.2734C167.042 58.2734 166.347 58.0026 165.81 57.4609C165.277 56.915 165.01 56.2083 165.01 55.3408C165.01 54.3548 165.355 53.5 166.045 52.7764C166.739 52.0527 167.556 51.6909 168.495 51.6909C168.639 51.6909 168.791 51.71 168.952 51.748C168.846 51.5576 168.793 51.3968 168.793 51.2656C168.793 51.0625 168.863 50.8678 169.003 50.6816C170.035 50.7663 170.895 51.2952 171.58 52.2686C172.283 52.7467 173.015 52.9858 173.776 52.9858C174.271 52.9858 174.807 52.8187 175.382 52.4844L175.7 53.0239C175.027 53.4937 174.337 53.7285 173.63 53.7285C173.161 53.7285 172.627 53.6312 172.031 53.4365ZM170.59 52.897C170.239 52.7912 169.915 52.6219 169.619 52.3892C169.403 52.3426 169.223 52.3193 169.079 52.3193C168.36 52.3193 167.721 52.6431 167.162 53.2905C166.608 53.938 166.331 54.6764 166.331 55.5059C166.331 56.1068 166.498 56.6019 166.832 56.9912C167.171 57.3763 167.604 57.5688 168.133 57.5688C168.848 57.5688 169.464 57.2091 169.98 56.4897C170.497 55.7661 170.755 54.9049 170.755 53.9062C170.755 53.5592 170.7 53.2228 170.59 52.897ZM175.49 58.0703C175.202 58.2057 174.972 58.2734 174.798 58.2734C174.367 58.2734 174.151 58.083 174.151 57.7021C174.151 57.5075 174.227 57.0229 174.379 56.2485L174.697 54.668C174.891 53.7285 174.989 53.0324 174.989 52.5796C174.989 52.3341 174.919 52.1289 174.779 51.9639C175.224 51.8115 175.585 51.7354 175.865 51.7354C176.161 51.7354 176.309 51.9237 176.309 52.3003C176.309 52.533 176.203 53.1445 175.992 54.1348L175.63 55.9819C176.43 54.4289 177.234 53.2228 178.042 52.3638C178.854 51.5005 179.591 51.0688 180.251 51.0688C180.484 51.0688 180.685 51.1366 180.854 51.272C181.023 51.4032 181.108 51.564 181.108 51.7544C181.108 52.0506 180.786 52.4442 180.143 52.9351C179.982 52.6007 179.754 52.4336 179.458 52.4336C178.92 52.4336 178.235 53.0049 177.401 54.1475C176.885 54.8584 176.436 55.5926 176.055 56.3501C175.674 57.1034 175.484 57.6408 175.484 57.9624L175.49 58.0703ZM182.263 55.4741C182.263 56.714 182.788 57.334 183.837 57.334C184.747 57.334 185.75 56.9002 186.846 56.0327C187.942 55.1652 188.93 54.0226 189.811 52.605L190.35 52.9033C189.521 54.4521 188.442 55.7344 187.113 56.75C185.788 57.7656 184.531 58.2734 183.342 58.2734C182.581 58.2734 181.978 58.028 181.533 57.5371C181.093 57.0462 180.873 56.3755 180.873 55.5249C180.873 54.2977 181.273 53.2482 182.073 52.3765C182.877 51.5047 183.844 51.0688 184.974 51.0688C185.52 51.0688 185.955 51.2064 186.281 51.4814C186.611 51.7565 186.776 52.1247 186.776 52.5859C186.776 53.3434 186.319 54.0142 185.405 54.5981C184.495 55.1821 183.448 55.4741 182.263 55.4741ZM182.314 54.8647C183.198 54.8182 183.956 54.5643 184.586 54.103C185.221 53.6418 185.539 53.1086 185.539 52.5034C185.539 51.9618 185.297 51.6909 184.815 51.6909C184.239 51.6909 183.708 51.9998 183.222 52.6177C182.735 53.2355 182.432 53.9845 182.314 54.8647Z" fill="#793809"/>
<path d="M3.52 28.28C3.52 28.728 3.53067 29.1333 3.552 29.496L3.616 30.712C3.616 30.968 3.53067 31.2133 3.36 31.448C3.18933 31.704 2.912 31.832 2.528 31.832C2.16533 31.832 1.888 31.6933 1.696 31.416C1.504 31.1387 1.408 30.9253 1.408 30.776C1.408 30.648 1.408 30.456 1.408 30.2C1.42933 29.944 1.45067 29.656 1.472 29.336C1.49333 29.016 1.504 28.696 1.504 28.376C1.52533 28.056 1.536 27.7787 1.536 27.544C1.536 27.2027 1.52533 26.9147 1.504 26.68C1.504 26.4453 1.504 26.2213 1.504 26.008C1.504 25.7733 1.49333 25.5387 1.472 25.304C1.472 25.0693 1.472 24.7813 1.472 24.44C1.472 24.1413 1.536 23.832 1.664 23.512C1.792 23.192 2.09067 23.032 2.56 23.032C2.83733 23.032 3.05067 23.1067 3.2 23.256C3.34933 23.384 3.46667 23.5653 3.552 23.8C3.63733 24.0133 3.69067 24.248 3.712 24.504C3.73333 24.76 3.744 25.0053 3.744 25.24C3.744 25.7947 3.872 26.328 4.128 26.84C4.40533 27.352 4.8 27.8213 5.312 28.248C5.824 28.6533 6.45333 28.984 7.2 29.24C7.94667 29.4747 8.8 29.592 9.76 29.592C10.528 29.592 11.2533 29.5173 11.936 29.368C12.64 29.1973 13.248 28.9733 13.76 28.696C14.2933 28.4187 14.72 28.088 15.04 27.704C15.36 27.2987 15.52 26.8507 15.52 26.36C15.52 25.72 15.2533 25.144 14.72 24.632C14.208 24.12 13.5573 23.6507 12.768 23.224C11.9787 22.7973 11.136 22.4027 10.24 22.04C9.344 21.6773 8.52267 21.3147 7.776 20.952C7.09333 20.632 6.38933 20.28 5.664 19.896C4.96 19.4907 4.30933 18.9893 3.712 18.392C3.136 17.7733 2.656 17.0053 2.272 16.088C1.90933 15.1707 1.728 14.0187 1.728 12.632C1.728 11.4373 1.97333 10.328 2.464 9.304C2.976 8.28 3.62667 7.39467 4.416 6.648C5.20533 5.88 6.09067 5.28267 7.072 4.856C8.05333 4.42933 9.024 4.216 9.984 4.216C11.5413 4.216 12.864 4.64267 13.952 5.496C15.04 6.328 15.904 7.672 16.544 9.528C16.4587 8.184 16.3947 7.192 16.352 6.552C16.3093 5.89067 16.288 5.54933 16.288 5.528C16.288 5.272 16.352 5.02667 16.48 4.792C16.6293 4.536 16.928 4.408 17.376 4.408C17.632 4.408 17.8347 4.45067 17.984 4.536C18.1333 4.62133 18.24 4.71733 18.304 4.824C18.3893 4.93067 18.4427 5.048 18.464 5.176C18.4853 5.304 18.496 5.4 18.496 5.464C18.496 6.21067 18.4747 6.98933 18.432 7.8C18.3893 8.58933 18.368 9.368 18.368 10.136C18.368 10.8187 18.3787 11.4587 18.4 12.056C18.4213 12.6533 18.432 13.2933 18.432 13.976C18.432 14.2747 18.336 14.5307 18.144 14.744C17.952 14.9573 17.664 15.064 17.28 15.064C16.8533 15.064 16.5653 14.872 16.416 14.488C16.2667 14.0827 16.192 13.6453 16.192 13.176C16.1067 12.152 15.872 11.2133 15.488 10.36C15.104 9.50666 14.6347 8.77066 14.08 8.152C13.5253 7.512 12.9067 7.02133 12.224 6.68C11.5627 6.31733 10.9013 6.136 10.24 6.136C9.36533 6.136 8.544 6.328 7.776 6.712C7.02933 7.096 6.37867 7.608 5.824 8.248C5.26933 8.888 4.82133 9.61333 4.48 10.424C4.16 11.2347 4 12.0667 4 12.92C4 13.88 4.11733 14.6907 4.352 15.352C4.58667 15.992 4.896 16.536 5.28 16.984C5.68533 17.4107 6.13333 17.7627 6.624 18.04C7.136 18.3173 7.648 18.5733 8.16 18.808C8.62933 19.0213 9.19467 19.256 9.856 19.512C10.5173 19.768 11.2 20.0667 11.904 20.408C12.6293 20.728 13.344 21.0907 14.048 21.496C14.752 21.88 15.3813 22.3173 15.936 22.808C16.4907 23.2773 16.9387 23.8107 17.28 24.408C17.6213 25.0053 17.792 25.656 17.792 26.36C17.792 27.32 17.5253 28.1307 16.992 28.792C16.48 29.4533 15.8293 29.9867 15.04 30.392C14.2507 30.776 13.3867 31.0533 12.448 31.224C11.5307 31.416 10.6667 31.512 9.856 31.512C9.28 31.512 8.672 31.4587 8.032 31.352C7.41333 31.2453 6.816 31.0747 6.24 30.84C5.664 30.584 5.13067 30.2533 4.64 29.848C4.17067 29.4213 3.79733 28.8987 3.52 28.28ZM25.513 20.664C25.513 21.816 25.5557 22.9253 25.641 23.992C25.7263 25.0373 25.9717 25.9653 26.377 26.776C26.7823 27.5867 27.4117 28.2373 28.265 28.728C29.1183 29.2187 30.3237 29.464 31.881 29.464C33.033 29.464 34.0037 29.2613 34.793 28.856C35.6037 28.4293 36.2543 27.8747 36.745 27.192C37.2357 26.5093 37.5877 25.7413 37.801 24.888C38.0143 24.0347 38.121 23.1707 38.121 22.296V8.792C38.121 8.6 38.0463 8.46133 37.897 8.376C37.7477 8.26933 37.5663 8.19467 37.353 8.152C37.161 8.10933 36.9583 8.088 36.745 8.088C36.5317 8.06667 36.3503 8.056 36.201 8.056C35.9663 8.056 35.7103 8.00267 35.433 7.896C35.1557 7.78933 35.017 7.576 35.017 7.256C35.017 6.72267 35.4117 6.456 36.201 6.456H42.473C43.1557 6.456 43.593 6.52 43.785 6.648C43.9983 6.75467 44.105 6.95733 44.105 7.256C44.105 7.61867 43.9663 7.84267 43.689 7.928C43.433 8.01333 43.177 8.056 42.921 8.056C42.8143 8.056 42.6117 8.06667 42.313 8.088C42.0357 8.088 41.7477 8.10933 41.449 8.152C41.1717 8.19467 40.9157 8.28 40.681 8.408C40.4677 8.51467 40.361 8.664 40.361 8.856C40.361 9.944 40.3503 11.0213 40.329 12.088C40.3077 13.1333 40.297 14.1893 40.297 15.256C40.297 16.4293 40.3077 17.6027 40.329 18.776C40.3503 19.9493 40.361 21.1227 40.361 22.296C40.361 23.8747 40.1477 25.24 39.721 26.392C39.3157 27.544 38.7397 28.4933 37.993 29.24C37.2463 29.9867 36.3503 30.5413 35.305 30.904C34.2597 31.2667 33.1077 31.448 31.849 31.448C30.8677 31.448 29.9397 31.352 29.065 31.16C28.2117 30.9893 27.433 30.7227 26.729 30.36C26.0463 29.9973 25.4597 29.5387 24.969 28.984C24.4783 28.408 24.1263 27.7467 23.913 27C23.593 25.912 23.401 24.824 23.337 23.736C23.2943 22.6267 23.273 21.4853 23.273 20.312C23.273 19.6293 23.273 18.936 23.273 18.232C23.2943 17.5067 23.305 16.7813 23.305 16.056C23.305 14.5627 23.2943 13.0693 23.273 11.576C23.2517 10.0827 23.241 8.57867 23.241 7.064C23.241 6.872 23.1663 6.73333 23.017 6.648C22.8677 6.54133 22.6863 6.46667 22.473 6.424C22.281 6.38133 22.0677 6.36 21.833 6.36C21.6197 6.33867 21.449 6.328 21.321 6.328C21.0863 6.328 20.8303 6.296 20.553 6.232C20.2757 6.14666 20.137 5.912 20.137 5.528C20.137 5.18667 20.2863 4.97333 20.585 4.888C20.8837 4.78133 21.129 4.728 21.321 4.728H27.625C28.3077 4.728 28.745 4.792 28.937 4.92C29.1503 5.02666 29.257 5.22933 29.257 5.528C29.257 5.82666 29.1183 6.04 28.841 6.168C28.585 6.27467 28.329 6.328 28.073 6.328C27.9663 6.328 27.7743 6.33867 27.497 6.36C27.2197 6.36 26.9317 6.38133 26.633 6.424C26.3557 6.46667 26.0997 6.552 25.865 6.68C25.6303 6.78666 25.513 6.936 25.513 7.128V20.664ZM51.1598 8.344V29.368H54.3598C54.5944 29.368 54.8078 29.432 54.9998 29.56C55.2131 29.6667 55.3198 29.88 55.3198 30.2C55.3198 30.7333 55.1064 31 54.6798 31H47.4478C47.1491 31 46.8504 30.9573 46.5518 30.872C46.2744 30.7653 46.1358 30.5413 46.1358 30.2C46.1358 29.9227 46.2424 29.7307 46.4557 29.624C46.6691 29.5173 46.8718 29.464 47.0638 29.464C47.1918 29.464 47.3304 29.464 47.4798 29.464C47.6504 29.4427 47.8104 29.3893 47.9598 29.304C48.1304 29.1973 48.2691 29.048 48.3758 28.856C48.5038 28.6427 48.5784 28.3547 48.5998 27.992C48.6424 26.5413 48.6958 25.016 48.7598 23.416C48.8451 21.7947 48.8878 20.184 48.8878 18.584C48.8878 16.7493 48.8664 14.8613 48.8238 12.92C48.8024 10.9573 48.7918 9.112 48.7918 7.384C48.7918 7.064 48.6104 6.85067 48.2478 6.744C47.9064 6.63733 47.5224 6.552 47.0958 6.488C46.6691 6.40267 46.2744 6.28533 45.9118 6.136C45.5704 5.98667 45.3997 5.69867 45.3997 5.272C45.3997 4.90933 46.0184 4.728 47.2558 4.728H51.6718C51.9278 4.728 52.1304 4.81333 52.2798 4.984C52.4291 5.13333 52.6531 5.47467 52.9518 6.008C53.2931 6.648 53.7731 7.544 54.3918 8.696C55.0104 9.848 55.6931 11.128 56.4398 12.536C57.2078 13.9227 57.9864 15.3733 58.7758 16.888C59.5864 18.3813 60.3331 19.7893 61.0158 21.112C61.7198 22.4347 62.3278 23.608 62.8398 24.632C63.3518 25.6347 63.7038 26.3493 63.8958 26.776V7.608C63.8958 7.416 63.8318 7.27733 63.7038 7.192C63.5758 7.08533 63.4158 7.01067 63.2238 6.968C63.0318 6.92533 62.8291 6.904 62.6158 6.904C62.4238 6.88267 62.2638 6.872 62.1358 6.872C61.9011 6.872 61.6451 6.81867 61.3678 6.712C61.0904 6.60533 60.9518 6.37067 60.9518 6.008C60.9518 5.51733 61.3464 5.272 62.1358 5.272H68.7278C69.4104 5.272 69.8478 5.32533 70.0398 5.432C70.2531 5.53867 70.3598 5.73067 70.3598 6.008C70.3598 6.37067 70.2211 6.60533 69.9438 6.712C69.6878 6.81867 69.4318 6.872 69.1758 6.872C69.0691 6.872 68.8558 6.88267 68.5358 6.904C68.2371 6.904 67.9171 6.92533 67.5758 6.968C67.2344 7.01067 66.9251 7.096 66.6478 7.224C66.3918 7.33067 66.2638 7.48 66.2638 7.672C66.2424 8.84533 66.2211 9.88 66.1998 10.776C66.1998 11.6507 66.1891 12.5147 66.1678 13.368C66.1678 14.2 66.1571 15.0747 66.1358 15.992C66.1358 16.9093 66.1358 17.9867 66.1358 19.224C66.1358 19.928 66.1358 20.76 66.1358 21.72C66.1571 22.68 66.1678 23.672 66.1678 24.696C66.1678 25.72 66.1678 26.7333 66.1678 27.736C66.1891 28.7173 66.1998 29.5813 66.1998 30.328C66.1998 30.6267 66.0931 30.872 65.8798 31.064C65.6878 31.256 65.4211 31.352 65.0798 31.352C64.7811 31.352 64.5144 31.3093 64.2798 31.224C64.0451 31.1387 63.8744 31 63.7678 30.808L51.1598 8.344ZM72.8628 29.464C73.0974 29.464 73.3428 29.464 73.5988 29.464C73.8761 29.4427 74.1321 29.4 74.3668 29.336C74.6014 29.272 74.7934 29.176 74.9427 29.048C75.0921 28.92 75.1668 28.7387 75.1668 28.504C75.1668 28.248 75.1668 27.7253 75.1668 26.936C75.1881 26.1253 75.1988 25.1973 75.1988 24.152C75.1988 23.1067 75.1988 22.008 75.1988 20.856C75.2201 19.704 75.2308 18.648 75.2308 17.688C75.2308 16.344 75.2201 15.1707 75.1988 14.168C75.1774 13.1653 75.1561 12.28 75.1348 11.512C75.1134 10.7227 75.0921 10.0187 75.0708 9.4C75.0494 8.76 75.0388 8.13067 75.0388 7.512C75.0388 7.23467 74.9641 7.02133 74.8148 6.872C74.6654 6.70133 74.4841 6.584 74.2708 6.52C74.0574 6.43467 73.8334 6.38133 73.5988 6.36C73.3854 6.33867 73.2041 6.328 73.0548 6.328C72.8201 6.328 72.5641 6.28533 72.2868 6.2C72.0094 6.11467 71.8708 5.89067 71.8708 5.528C71.8708 5.16533 72.0201 4.94133 72.3188 4.856C72.6174 4.77067 72.8628 4.728 73.0548 4.728H79.5188C80.2014 4.728 80.6388 4.792 80.8308 4.92C81.0441 5.02666 81.1508 5.22933 81.1508 5.528C81.1508 5.86933 81.0121 6.09333 80.7348 6.2C80.4788 6.28533 80.2228 6.328 79.9668 6.328C79.8601 6.328 79.6681 6.33867 79.3908 6.36C79.1348 6.36 78.8681 6.38133 78.5908 6.424C78.3134 6.46667 78.0574 6.552 77.8228 6.68C77.6094 6.78666 77.5028 6.936 77.5028 7.128V28.888H84.2548C84.5748 28.888 84.8521 28.8133 85.0868 28.664C85.3214 28.5147 85.4708 28.2587 85.5348 27.896C85.5561 27.7893 85.5881 27.4907 85.6308 27C85.6734 26.5093 85.7161 25.976 85.7588 25.4C85.8014 24.824 85.8441 24.28 85.8868 23.768C85.9294 23.2347 85.9508 22.8827 85.9508 22.712C85.9508 22.2213 86.0041 21.8373 86.1108 21.56C86.2388 21.2613 86.5374 21.112 87.0068 21.112C87.3054 21.112 87.5614 21.176 87.7748 21.304C87.9881 21.4107 88.0948 21.6133 88.0948 21.912C88.0948 22.296 88.0734 22.84 88.0308 23.544C87.9881 24.2267 87.9348 24.9627 87.8708 25.752C87.8281 26.52 87.7748 27.2987 87.7108 28.088C87.6681 28.856 87.6254 29.5173 87.5828 30.072C87.5401 30.4347 87.4334 30.68 87.2628 30.808C87.0921 30.936 86.8468 31 86.5268 31H72.5108C72.1481 31 71.9241 30.904 71.8388 30.712C71.7748 30.4987 71.7428 30.3387 71.7428 30.232C71.7428 29.912 71.8388 29.7093 72.0308 29.624C72.2228 29.5173 72.5001 29.464 72.8628 29.464ZM92.2685 17.528C92.6098 17.272 93.0792 16.9733 93.6765 16.632C94.2952 16.2693 94.9565 15.8853 95.6605 15.48C96.3858 15.0533 97.1112 14.6053 97.8365 14.136C98.5618 13.6453 99.2232 13.1333 99.8205 12.6C100.418 12.0453 100.909 11.4693 101.293 10.872C101.677 10.2747 101.869 9.64533 101.869 8.984C101.869 8.536 101.773 8.14133 101.581 7.8C101.389 7.45867 101.133 7.17067 100.813 6.936C100.514 6.70133 100.151 6.53067 99.7245 6.424C99.3192 6.296 98.8925 6.232 98.4445 6.232C97.8685 6.232 97.3032 6.328 96.7485 6.52C96.1938 6.69067 95.6605 6.95733 95.1485 7.32C94.6578 7.66133 94.2098 8.09867 93.8045 8.632C93.4205 9.144 93.1218 9.752 92.9085 10.456C92.8445 10.6267 92.7698 10.8187 92.6845 11.032C92.6205 11.2453 92.5245 11.448 92.3965 11.64C92.2685 11.8107 92.1085 11.96 91.9165 12.088C91.7458 12.1947 91.5325 12.248 91.2765 12.248C91.0418 12.248 90.8605 12.2053 90.7325 12.12C90.6045 12.0347 90.5085 11.9387 90.4445 11.832C90.4018 11.704 90.3698 11.5973 90.3485 11.512C90.3485 11.4053 90.3485 11.3413 90.3485 11.32C90.3485 10.7653 90.5085 10.0933 90.8285 9.304C91.1485 8.49333 91.6392 7.71467 92.3005 6.968C92.9832 6.22133 93.8472 5.58133 94.8925 5.048C95.9378 4.51467 97.1858 4.248 98.6365 4.248C99.0205 4.248 99.5218 4.29067 100.141 4.376C100.781 4.44 101.399 4.61067 101.997 4.888C102.615 5.144 103.149 5.54933 103.597 6.104C104.045 6.63733 104.269 7.37333 104.269 8.312C104.269 9.16533 104.077 9.976 103.693 10.744C103.309 11.4907 102.818 12.184 102.221 12.824C101.623 13.464 100.962 14.0507 100.237 14.584C99.5112 15.096 98.8178 15.544 98.1565 15.928C97.4952 16.312 96.8872 16.632 96.3325 16.888C95.7992 17.144 95.4258 17.3147 95.2125 17.4C95.2552 17.4 95.3618 17.3787 95.5325 17.336C95.7245 17.2933 95.9592 17.2507 96.2365 17.208C96.5352 17.1653 96.8552 17.1227 97.1965 17.08C97.5592 17.0373 97.9325 17.016 98.3165 17.016C99.1698 17.016 99.9805 17.144 100.749 17.4C101.517 17.656 102.189 18.0187 102.765 18.488C103.341 18.9573 103.799 19.5333 104.141 20.216C104.482 20.8773 104.653 21.624 104.653 22.456C104.653 23.5653 104.354 24.664 103.757 25.752C103.181 26.84 102.391 27.8213 101.389 28.696C100.407 29.5493 99.2658 30.2427 97.9645 30.776C96.6845 31.3093 95.3405 31.576 93.9325 31.576C93.3352 31.576 92.7592 31.5227 92.2045 31.416C91.6712 31.3093 91.1912 31.16 90.7645 30.968C90.3378 30.7547 89.9965 30.4987 89.7405 30.2C89.4845 29.9013 89.3565 29.56 89.3565 29.176C89.3565 28.8773 89.4205 28.632 89.5485 28.44C89.6978 28.248 89.9218 28.152 90.2205 28.152C90.5192 28.152 90.7218 28.2587 90.8285 28.472C90.9352 28.6853 91.1378 28.9093 91.4365 29.144C91.8418 29.4427 92.2578 29.624 92.6845 29.688C93.1325 29.752 93.4845 29.784 93.7405 29.784C94.5725 29.784 95.4792 29.6133 96.4605 29.272C97.4632 28.9307 98.3912 28.4613 99.2445 27.864C100.098 27.2453 100.813 26.52 101.389 25.688C101.965 24.856 102.253 23.9387 102.253 22.936C102.253 22.2107 102.093 21.5813 101.773 21.048C101.474 20.5147 101.069 20.0773 100.557 19.736C100.066 19.3947 99.5005 19.1387 98.8605 18.968C98.2418 18.7973 97.6232 18.712 97.0045 18.712C96.4072 18.712 95.8632 18.776 95.3725 18.904C94.9032 19.0107 94.4765 19.1387 94.0925 19.288C93.7085 19.4373 93.3672 19.576 93.0685 19.704C92.7698 19.8107 92.5245 19.864 92.3325 19.864C92.0978 19.864 91.8845 19.7787 91.6925 19.608C91.5218 19.416 91.4365 19.1707 91.4365 18.872C91.4365 18.488 91.5432 18.1893 91.7565 17.976C91.9912 17.7627 92.1618 17.6133 92.2685 17.528ZM109.3 17.528C109.641 17.272 110.11 16.9733 110.708 16.632C111.326 16.2693 111.988 15.8853 112.692 15.48C113.417 15.0533 114.142 14.6053 114.868 14.136C115.593 13.6453 116.254 13.1333 116.852 12.6C117.449 12.0453 117.94 11.4693 118.324 10.872C118.708 10.2747 118.9 9.64533 118.9 8.984C118.9 8.536 118.804 8.14133 118.612 7.8C118.42 7.45867 118.164 7.17067 117.844 6.936C117.545 6.70133 117.182 6.53067 116.756 6.424C116.35 6.296 115.924 6.232 115.476 6.232C114.9 6.232 114.334 6.328 113.78 6.52C113.225 6.69067 112.692 6.95733 112.18 7.32C111.689 7.66133 111.241 8.09867 110.836 8.632C110.452 9.144 110.153 9.752 109.94 10.456C109.876 10.6267 109.801 10.8187 109.716 11.032C109.652 11.2453 109.556 11.448 109.428 11.64C109.3 11.8107 109.14 11.96 108.948 12.088C108.777 12.1947 108.564 12.248 108.308 12.248C108.073 12.248 107.892 12.2053 107.764 12.12C107.636 12.0347 107.54 11.9387 107.476 11.832C107.433 11.704 107.401 11.5973 107.38 11.512C107.38 11.4053 107.38 11.3413 107.38 11.32C107.38 10.7653 107.54 10.0933 107.86 9.304C108.18 8.49333 108.67 7.71467 109.332 6.968C110.014 6.22133 110.878 5.58133 111.924 5.048C112.969 4.51467 114.217 4.248 115.668 4.248C116.052 4.248 116.553 4.29067 117.172 4.376C117.812 4.44 118.43 4.61067 119.028 4.888C119.646 5.144 120.18 5.54933 120.628 6.104C121.076 6.63733 121.3 7.37333 121.3 8.312C121.3 9.16533 121.108 9.976 120.724 10.744C120.34 11.4907 119.849 12.184 119.252 12.824C118.654 13.464 117.993 14.0507 117.268 14.584C116.542 15.096 115.849 15.544 115.188 15.928C114.526 16.312 113.918 16.632 113.364 16.888C112.83 17.144 112.457 17.3147 112.244 17.4C112.286 17.4 112.393 17.3787 112.564 17.336C112.756 17.2933 112.99 17.2507 113.268 17.208C113.566 17.1653 113.886 17.1227 114.228 17.08C114.59 17.0373 114.964 17.016 115.348 17.016C116.201 17.016 117.012 17.144 117.78 17.4C118.548 17.656 119.22 18.0187 119.796 18.488C120.372 18.9573 120.83 19.5333 121.172 20.216C121.513 20.8773 121.684 21.624 121.684 22.456C121.684 23.5653 121.385 24.664 120.788 25.752C120.212 26.84 119.422 27.8213 118.42 28.696C117.438 29.5493 116.297 30.2427 114.996 30.776C113.716 31.3093 112.372 31.576 110.964 31.576C110.366 31.576 109.79 31.5227 109.236 31.416C108.702 31.3093 108.222 31.16 107.796 30.968C107.369 30.7547 107.028 30.4987 106.772 30.2C106.516 29.9013 106.388 29.56 106.388 29.176C106.388 28.8773 106.452 28.632 106.58 28.44C106.729 28.248 106.953 28.152 107.252 28.152C107.55 28.152 107.753 28.2587 107.86 28.472C107.966 28.6853 108.169 28.9093 108.468 29.144C108.873 29.4427 109.289 29.624 109.716 29.688C110.164 29.752 110.516 29.784 110.772 29.784C111.604 29.784 112.51 29.6133 113.492 29.272C114.494 28.9307 115.422 28.4613 116.276 27.864C117.129 27.2453 117.844 26.52 118.42 25.688C118.996 24.856 119.284 23.9387 119.284 22.936C119.284 22.2107 119.124 21.5813 118.804 21.048C118.505 20.5147 118.1 20.0773 117.588 19.736C117.097 19.3947 116.532 19.1387 115.892 18.968C115.273 18.7973 114.654 18.712 114.036 18.712C113.438 18.712 112.894 18.776 112.404 18.904C111.934 19.0107 111.508 19.1387 111.124 19.288C110.74 19.4373 110.398 19.576 110.1 19.704C109.801 19.8107 109.556 19.864 109.364 19.864C109.129 19.864 108.916 19.7787 108.724 19.608C108.553 19.416 108.468 19.1707 108.468 18.872C108.468 18.488 108.574 18.1893 108.788 17.976C109.022 17.7627 109.193 17.6133 109.3 17.528ZM129.691 8.344V29.368H132.891C133.126 29.368 133.339 29.432 133.531 29.56C133.744 29.6667 133.851 29.88 133.851 30.2C133.851 30.7333 133.638 31 133.211 31H125.979C125.68 31 125.382 30.9573 125.083 30.872C124.806 30.7653 124.667 30.5413 124.667 30.2C124.667 29.9227 124.774 29.7307 124.987 29.624C125.2 29.5173 125.403 29.464 125.595 29.464C125.723 29.464 125.862 29.464 126.011 29.464C126.182 29.4427 126.342 29.3893 126.491 29.304C126.662 29.1973 126.8 29.048 126.907 28.856C127.035 28.6427 127.11 28.3547 127.131 27.992C127.174 26.5413 127.227 25.016 127.291 23.416C127.376 21.7947 127.419 20.184 127.419 18.584C127.419 16.7493 127.398 14.8613 127.355 12.92C127.334 10.9573 127.323 9.112 127.323 7.384C127.323 7.064 127.142 6.85067 126.779 6.744C126.438 6.63733 126.054 6.552 125.627 6.488C125.2 6.40267 124.806 6.28533 124.443 6.136C124.102 5.98667 123.931 5.69867 123.931 5.272C123.931 4.90933 124.55 4.728 125.787 4.728H130.203C130.459 4.728 130.662 4.81333 130.811 4.984C130.96 5.13333 131.184 5.47467 131.483 6.008C131.824 6.648 132.304 7.544 132.923 8.696C133.542 9.848 134.224 11.128 134.971 12.536C135.739 13.9227 136.518 15.3733 137.307 16.888C138.118 18.3813 138.864 19.7893 139.547 21.112C140.251 22.4347 140.859 23.608 141.371 24.632C141.883 25.6347 142.235 26.3493 142.427 26.776V7.608C142.427 7.416 142.363 7.27733 142.235 7.192C142.107 7.08533 141.947 7.01067 141.755 6.968C141.563 6.92533 141.36 6.904 141.147 6.904C140.955 6.88267 140.795 6.872 140.667 6.872C140.432 6.872 140.176 6.81867 139.899 6.712C139.622 6.60533 139.483 6.37067 139.483 6.008C139.483 5.51733 139.878 5.272 140.667 5.272H147.259C147.942 5.272 148.379 5.32533 148.571 5.432C148.784 5.53867 148.891 5.73067 148.891 6.008C148.891 6.37067 148.752 6.60533 148.475 6.712C148.219 6.81867 147.963 6.872 147.707 6.872C147.6 6.872 147.387 6.88267 147.067 6.904C146.768 6.904 146.448 6.92533 146.107 6.968C145.766 7.01067 145.456 7.096 145.179 7.224C144.923 7.33067 144.795 7.48 144.795 7.672C144.774 8.84533 144.752 9.88 144.731 10.776C144.731 11.6507 144.72 12.5147 144.699 13.368C144.699 14.2 144.688 15.0747 144.667 15.992C144.667 16.9093 144.667 17.9867 144.667 19.224C144.667 19.928 144.667 20.76 144.667 21.72C144.688 22.68 144.699 23.672 144.699 24.696C144.699 25.72 144.699 26.7333 144.699 27.736C144.72 28.7173 144.731 29.5813 144.731 30.328C144.731 30.6267 144.624 30.872 144.411 31.064C144.219 31.256 143.952 31.352 143.611 31.352C143.312 31.352 143.046 31.3093 142.811 31.224C142.576 31.1387 142.406 31 142.299 30.808L129.691 8.344Z" fill="#FB9114"/>
</svg>
