<svg width="22" height="21" viewBox="0 0 22 21" fill="none" xmlns="http://www.w3.org/2000/svg">
<path d="M11.0165 0C4.9324 0 0 4.69665 0 10.4895C0 14.9331 2.9018 18.7289 7.0004 20.2545C6.9036 19.425 6.8178 18.1524 7.0378 17.2462C7.2391 16.4272 8.3303 12.034 8.3303 12.034C8.3303 12.034 8.0003 11.404 8.0003 10.4758C8.0003 9.02055 8.8891 7.92855 9.9924 7.92855C10.9329 7.92855 11.3872 8.60055 11.3872 9.40485C11.3872 10.3057 10.7877 11.6518 10.4753 12.8982C10.2135 13.9419 11.0275 14.7924 12.1066 14.7924C14.0624 14.7924 15.5694 12.8289 15.5694 9.9918C15.5694 7.4886 13.6741 5.7309 10.967 5.7309C7.8342 5.7309 5.9972 7.97265 5.9972 10.2805C5.9972 11.1835 6.3591 12.1558 6.8134 12.6787C6.9047 12.7837 6.9168 12.8761 6.8915 12.9811C6.809 13.3087 6.6231 14.0301 6.5846 14.1729C6.5362 14.3703 6.4273 14.4102 6.2161 14.3178C4.8422 13.714 3.9809 11.7999 3.9809 10.2522C3.9809 6.9489 6.5065 3.90705 11.2585 3.90705C15.0799 3.90705 18.051 6.50265 18.051 9.9645C18.051 13.5828 15.6552 16.4934 12.3233 16.4934C11.2079 16.4934 10.1607 15.9432 9.7889 15.2869L9.1014 17.7796C8.8539 18.6931 8.1774 19.8376 7.7242 20.5317C8.78114 20.8424 9.88087 21.0002 10.9868 21C17.0588 21 22 16.3065 22 10.5105C22 4.71765 17.0577 0.02415 10.9868 0.02415L11.0165 0Z" fill="black"/>
</svg>
