<svg width="110" height="22" viewBox="0 0 110 22" fill="none" xmlns="http://www.w3.org/2000/svg">
<path d="M98.8959 15.3641L104.507 18.6824L103.018 12.4283L107.976 8.22027L101.447 7.67759L98.8959 1.7793L96.3444 7.67759L89.816 8.22027L94.7736 12.4283L93.2845 18.6824L98.8959 15.3641Z" fill="black"/>
<path d="M76.8959 15.3641L82.5072 18.6824L81.0181 12.4283L85.9757 8.22027L79.4473 7.67759L76.8959 1.7793L74.3444 7.67759L67.816 8.22027L72.7736 12.4283L71.2845 18.6824L76.8959 15.3641Z" fill="black"/>
<path d="M55.8631 15.4217L61.4744 18.74L59.9853 12.4859L64.943 8.27789L58.4145 7.73521L55.8631 1.83691L53.3116 7.73521L46.7832 8.27789L51.7408 12.4859L50.2517 18.74L55.8631 15.4217Z" fill="black"/>
<path d="M32.8959 15.3641L38.5072 18.6824L37.0181 12.4283L41.9757 8.22027L35.4473 7.67759L32.8959 1.7793L30.3444 7.67759L23.816 8.22027L28.7736 12.4283L27.2845 18.6824L32.8959 15.3641Z" fill="black"/>
<path d="M10.8959 15.3641L16.5072 18.6824L15.0181 12.4283L19.9757 8.22027L13.4473 7.67759L10.8959 1.7793L8.34441 7.67759L1.81598 8.22027L6.77359 12.4283L5.28449 18.6824L10.8959 15.3641Z" fill="black"/>
</svg>
